<svg width="351" height="376" viewBox="0 0 351 376" fill="none" xmlns="http://www.w3.org/2000/svg">
<path d="M252.58 93.54C252.36 93.22 252.173 93.05 252.02 93.03L252.04 4.87C252.04 3.95667 252.5 3.5 253.42 3.5C262.147 3.50667 270.917 3.50333 279.73 3.49C285.13 3.48 290.16 2.87 295.76 2.51C304.793 1.94333 312.867 3.39 319.98 6.85C336.22 14.76 347.35 28.39 348.56 46.92C349.373 59.28 345.927 69.9967 338.22 79.07C330 88.7433 319.473 94.3567 306.64 95.91C300.893 96.61 294.667 96.1667 287.96 94.58C285.213 93.9267 282.63 93.5633 280.21 93.49C271.163 93.1967 262.113 93.1367 253.06 93.31C252.927 93.31 252.813 93.3567 252.72 93.45C252.68 93.49 252.633 93.52 252.58 93.54ZM308.663 73.4538C314.273 71.961 319.045 68.2395 321.927 63.1081C324.81 57.9767 325.568 51.8556 324.034 46.0914C323.275 43.2373 321.975 40.5567 320.211 38.2027C318.446 35.8487 316.25 33.8674 313.749 32.3718C311.248 30.8763 308.49 29.8959 305.633 29.4866C302.775 29.0773 299.875 29.247 297.097 29.9862C291.487 31.479 286.715 35.2005 283.833 40.3319C280.95 45.4634 280.192 51.5844 281.726 57.3486C282.485 60.2027 283.785 62.8833 285.549 65.2373C287.314 67.5913 289.51 69.5726 292.011 71.0682C294.512 72.5637 297.27 73.5441 300.127 73.9534C302.985 74.3627 305.885 74.193 308.663 73.4538Z" fill="#141414"/>
<path d="M138.99 34.52C136.183 30.34 133.05 26.9333 129.59 24.3C124.023 16.5266 116.493 12.4766 107 12.15C79.38 11.22 60.42 37.03 68.27 63.35C70.51 70.85 77.03 78.62 83.99 83.68C84.4727 84.0327 84.8649 84.4948 85.1344 85.0285C85.4038 85.5622 85.5428 86.1521 85.54 86.75C84.98 163.36 85.29 240.87 85.39 316.49C85.41 329.53 93.6 342.31 107.99 341.35C113.29 340.997 117.77 338.813 121.43 334.8C125.55 330.29 128.81 323.38 128.5 317.03C128.31 313.26 128.97 309.48 128.97 305.92C128.983 233.833 128.987 161.693 128.98 89.5C128.98 85.34 129.06 82.1533 129.22 79.94C130.453 78.68 131.7 77.4333 132.96 76.2C138.847 70.48 142.297 63.6033 143.31 55.57C143.71 52.37 143.37 48.75 143.18 45.32H173.19C173.49 45.32 173.64 45.47 173.64 45.77L173.46 92.52C173.46 93.0066 173.217 93.25 172.73 93.25H155.43C155.215 93.25 155.009 93.3364 154.857 93.4901C154.705 93.6439 154.62 93.8525 154.62 94.07V158.73C154.62 158.924 154.697 159.109 154.834 159.246C154.971 159.383 155.156 159.46 155.35 159.46L185.77 159.48L198.22 159.47L240.11 159.49L239.92 183.77L155.52 183.74C155.312 183.74 155.113 183.821 154.965 183.965C154.817 184.109 154.733 184.305 154.73 184.51L154.63 194.06C154.629 194.117 154.639 194.174 154.66 194.228C154.681 194.281 154.712 194.33 154.752 194.371C154.792 194.412 154.84 194.444 154.893 194.466C154.946 194.489 155.003 194.5 155.06 194.5H239.26C239.362 194.5 239.462 194.52 239.555 194.561C239.648 194.601 239.732 194.66 239.802 194.734C239.871 194.808 239.925 194.896 239.959 194.991C239.993 195.087 240.007 195.189 240 195.29C239.34 204.82 252.68 205.42 251.72 195.59C251.709 195.477 251.721 195.363 251.756 195.255C251.791 195.147 251.848 195.047 251.923 194.962C251.998 194.876 252.089 194.807 252.192 194.759C252.295 194.71 252.406 194.684 252.52 194.68C262.527 194.393 272.533 194.373 282.54 194.62C286.973 194.733 290.46 196.157 293 198.89C296.6 202.75 296.85 208.82 293.86 212.94C291.44 216.273 287.95 217.943 283.39 217.95C241.17 218.043 198.377 218.04 155.01 217.94C154.823 217.94 154.73 218.033 154.73 218.22L154.59 227.98C154.589 228.05 154.602 228.12 154.628 228.186C154.655 228.251 154.694 228.311 154.745 228.361C154.795 228.411 154.855 228.451 154.921 228.479C154.987 228.506 155.058 228.52 155.13 228.52C195.51 228.427 236.457 228.503 277.97 228.75C290.43 228.83 302.02 225.51 306.13 212.26C308.25 205.44 306.16 197.53 301.24 192.25C296.353 186.997 290.193 184.317 282.76 184.21C272.533 184.07 262.193 183.983 251.74 183.95L252.17 159.26C262.257 159.48 272.283 159.553 282.25 159.48C285.377 159.453 288.783 159.597 292.47 159.91C306.52 161.1 319.02 168.74 326.96 180.24C333 188.98 335.73 199.24 335.07 209.96C334.257 223.113 328.577 234.147 318.03 243.06C315.777 244.96 312.22 247.31 307.36 250.11C301.227 252.043 295.773 253.01 291 253.01C245.787 252.99 200.567 252.99 155.34 253.01C154.987 253.017 154.81 253.193 154.81 253.54L154.73 264.75L154.85 290.75L154.66 304.04C154.747 310.58 154.68 317.147 154.46 323.74C153.71 346.62 139.44 365.71 117.24 371.77C111.68 373.29 104.98 374.36 99.22 373.76C92.1467 373.013 86.5134 371.877 82.32 370.35C80.0067 369.51 77.2134 368.07 73.94 366.03C62.66 359 55.03 347.94 52.55 335.06C50.79 325.95 51.63 315.16 51.46 305.35C51.4587 305.264 51.4405 305.179 51.4065 305.1C51.3725 305.021 51.3233 304.949 51.2619 304.89C51.2005 304.83 51.128 304.784 51.0487 304.753C50.9694 304.722 50.8849 304.707 50.8 304.71C41.0267 304.97 31.4267 304.943 22 304.63C14.58 304.38 12.91 294.1 19.2 291.21C20.6867 290.523 22.6667 290.187 25.14 290.2C38.0867 290.273 50.2067 290.28 61.5 290.22C61.6667 290.22 61.75 290.137 61.75 289.97V250.31C61.75 249.977 61.5834 249.81 61.25 249.81C52.97 249.723 45.3434 249.6 38.37 249.44C37.7367 249.427 37.1 249.507 36.46 249.68C36.1 249.78 35.8334 249.997 35.66 250.33C33.74 254.117 30.33 256.8 25.43 258.38C7.18002 264.25 -2.21998 238.34 14.21 229.84C18.07 227.84 22.2967 227.603 26.89 229.13C30.36 230.28 32.29 232.18 34.78 234.57C35.1252 234.903 35.5887 235.086 36.07 235.08L61.12 234.76C61.54 234.76 61.75 234.547 61.75 234.12L61.74 210.72C61.74 210.463 61.6378 210.216 61.4559 210.034C61.274 209.852 61.0273 209.75 60.77 209.75C48.1434 209.743 36.0967 209.747 24.63 209.76C18.1367 209.773 15.2367 206.823 15.93 200.91C16.3634 197.21 18.6767 195.247 22.87 195.02C29.7967 194.64 37.8334 194.617 46.98 194.95C50.69 195.09 55.53 194.72 59.04 193.09C67.61 189.14 69.83 179.46 68.4 170.59C67.44 164.603 64.5 159.527 59.58 155.36C59.12 154.973 59.1867 154.827 59.78 154.92C60.16 154.98 60.4834 155.133 60.75 155.38C60.8024 155.429 60.8677 155.463 60.9383 155.477C61.009 155.49 61.0821 155.484 61.1492 155.458C61.2163 155.431 61.2745 155.387 61.3171 155.329C61.3598 155.271 61.385 155.202 61.39 155.13C61.7034 151.163 61.8567 147.29 61.85 143.51C61.81 126.197 61.7867 109.573 61.78 93.64C61.7804 93.5489 61.7616 93.4588 61.7249 93.3753C61.6882 93.2918 61.6343 93.2167 61.5667 93.1547C61.4991 93.0927 61.4192 93.0452 61.332 93.0151C61.2448 92.985 61.1522 92.9731 61.06 92.98L56.03 93.32C55.5367 93.3533 55.14 93.1733 54.84 92.78C46.58 81.86 40.97 68.48 41.37 54.91C41.9034 37.0166 49.43 23.1366 63.95 13.27C70.4767 8.83664 77.4834 5.93664 84.97 4.56997C89.4234 3.75664 96.1 3.37664 105 3.42997C127.853 3.56331 150.3 3.56664 172.34 3.43997C173.187 3.43997 173.607 3.85997 173.6 4.69997L173.44 33.73C173.44 34.0566 173.277 34.22 172.95 34.22L138.99 34.52Z" fill="#141414"/>
<path d="M207.03 3.51001H185.79C185.359 3.51001 185.01 3.85923 185.01 4.29001V33.47C185.01 33.9008 185.359 34.25 185.79 34.25H207.03C207.461 34.25 207.81 33.9008 207.81 33.47V4.29001C207.81 3.85923 207.461 3.51001 207.03 3.51001Z" fill="#141414"/>
<path d="M240.29 93.14L240.07 93.54L238.99 93.16C238.677 93.0533 238.357 93 238.03 93H220.24C220.107 93 219.976 92.9739 219.853 92.9231C219.731 92.8724 219.62 92.798 219.526 92.7042C219.432 92.6104 219.358 92.499 219.307 92.3765C219.256 92.254 219.23 92.1226 219.23 91.99V4.01C219.23 3.87474 219.284 3.74502 219.379 3.64938C219.475 3.55373 219.605 3.5 219.74 3.5H239.79C239.906 3.49999 240.022 3.52308 240.129 3.56793C240.236 3.61278 240.334 3.67849 240.416 3.76127C240.498 3.84405 240.562 3.94224 240.606 4.05017C240.65 4.15809 240.671 4.2736 240.67 4.39L240.29 93.14Z" fill="#141414"/>
<path d="M129.59 24.3C133.05 26.9333 136.183 30.34 138.99 34.52L143.18 45.32C143.37 48.75 143.71 52.37 143.31 55.57C142.297 63.6033 138.847 70.48 132.96 76.2C131.7 77.4333 130.453 78.68 129.22 79.94C127.533 81.2666 126.03 82.1733 124.71 82.66C120.343 84.28 115.817 85.0833 111.13 85.07C102.01 85.0566 94.3334 81.8366 88.1 75.41C78.55 65.55 75.75 52.18 80.76 39.54C82.4467 35.2933 85.0534 31.52 88.58 28.22C96.22 21.0666 105.777 18.2533 117.25 19.78C120.39 20.1933 124.503 21.7 129.59 24.3Z" fill="#FF6200"/>
<path d="M302.835 61.0699C308.623 61.0497 313.3 56.4891 313.28 50.8834C313.26 45.2778 308.553 40.7499 302.765 40.7701C296.977 40.7903 292.301 45.3509 292.32 50.9566C292.34 56.5622 297.048 61.0901 302.835 61.0699Z" fill="#141414"/>
<path d="M198.53 93.24L185.46 93.6L185 45.96C185 45.7717 185.075 45.5911 185.208 45.458C185.341 45.3248 185.522 45.25 185.71 45.25H207.02C207.224 45.25 207.42 45.3311 207.564 45.4755C207.709 45.6199 207.79 45.8158 207.79 46.02L207.63 92.55C207.63 92.7357 207.556 92.9137 207.425 93.045C207.294 93.1763 207.116 93.25 206.93 93.25L198.53 93.24Z" fill="#141414"/>
<path d="M116 88.8702C116.467 88.7702 116.903 88.6268 117.31 88.4402C117.923 88.1668 118.23 88.3668 118.23 89.0402L117.86 303.45C117.86 303.817 117.673 304 117.3 304H98.2901C97.9019 304 97.5295 303.847 97.2541 303.573C96.9788 303.3 96.8227 302.928 96.8201 302.54L96.5501 89.5202C96.5493 89.4361 96.5678 89.3531 96.6041 89.2772C96.6404 89.2013 96.6937 89.1345 96.7599 89.0817C96.8262 89.0289 96.9038 88.9914 96.9869 88.9721C97.07 88.9528 97.1565 88.9521 97.2401 88.9702C103.6 90.3102 109.853 90.2768 116 88.8702Z" fill="#141414"/>
<path d="M198.53 93.2402L198.22 159.47L185.77 159.48L185.46 93.6002L198.53 93.2402Z" fill="#FF6200"/>
<path d="M252.02 93.0298C252.173 93.0498 252.36 93.2198 252.58 93.5398C252.747 94.0465 252.827 94.6165 252.82 95.2498C252.607 111.023 252.583 126.8 252.75 142.58C252.81 148.28 252.5 153.7 252.17 159.26L251.74 183.95L239.92 183.77L240.11 159.49L240.07 93.5398L240.29 93.1398L252.02 93.0298Z" fill="#FF6200"/>
<path d="M16.2807 119.95C14.9585 127.298 19.7603 134.313 27.0059 135.616C34.2515 136.92 41.1971 132.019 42.5194 124.671C43.8417 117.322 39.0399 110.307 31.7942 109.004C24.5486 107.7 17.603 112.601 16.2807 119.95Z" fill="#141414"/>
<path d="M280.578 114.784C275.664 120.436 276.155 128.907 281.674 133.704C287.192 138.501 295.649 137.808 300.562 132.156C305.476 126.504 304.985 118.033 299.466 113.236C293.948 108.439 285.491 109.132 280.578 114.784Z" fill="#141414"/>
<path d="M52.26 168.22C52.26 168.547 52.1308 168.861 51.9004 169.093C51.67 169.326 51.3571 169.457 51.03 169.46L16.03 169.59C14.7477 169.595 13.4771 169.397 12.2909 169.007C11.1048 168.618 10.0263 168.044 9.11711 167.32C8.20793 166.596 7.48586 165.734 6.9922 164.786C6.49853 163.837 6.24293 162.819 6.24002 161.79V161.45C6.2341 159.374 7.25565 157.381 9.08016 155.907C10.9047 154.433 13.3828 153.6 15.97 153.59L50.97 153.46C51.1337 153.459 51.296 153.49 51.4476 153.551C51.5992 153.613 51.7371 153.704 51.8533 153.82C51.9695 153.935 52.0617 154.072 52.1247 154.223C52.1876 154.374 52.22 154.536 52.22 154.7L52.26 168.22Z" fill="#141414"/>
<path d="M307.36 250.11C304.3 256.61 299.533 260.957 293.06 263.15C289.927 264.203 284.167 264.733 275.78 264.74C235.467 264.753 195.117 264.757 154.73 264.75L154.81 253.54C154.81 253.193 154.987 253.017 155.34 253.01C200.567 252.99 245.787 252.99 291 253.01C295.773 253.01 301.227 252.043 307.36 250.11Z" fill="#FF6200"/>
<path d="M256.75 303.49C255.97 299.217 255.783 294.973 256.19 290.76C256.87 289.307 257.587 287.727 258.34 286.02C263.1 275.32 275.17 271.51 286.04 274.22C293.65 276.12 300.06 282.57 301.85 290.37C304.28 301 299.95 311.05 290.31 316.08C283.92 319.41 276.53 320.53 269.96 317.53C263.533 314.583 259.13 309.903 256.75 303.49ZM287.48 296.21C287.48 294.048 286.621 291.975 285.093 290.447C283.565 288.919 281.492 288.06 279.33 288.06C277.168 288.06 275.095 288.919 273.567 290.447C272.039 291.975 271.18 294.048 271.18 296.21C271.18 297.28 271.391 298.34 271.8 299.329C272.21 300.318 272.81 301.216 273.567 301.973C274.324 302.73 275.222 303.33 276.211 303.74C277.2 304.149 278.26 304.36 279.33 304.36C280.4 304.36 281.46 304.149 282.449 303.74C283.438 303.33 284.336 302.73 285.093 301.973C285.85 301.216 286.45 300.318 286.86 299.329C287.269 298.34 287.48 297.28 287.48 296.21Z" fill="#141414"/>
<path d="M154.85 290.75L256.19 290.76C255.783 294.973 255.97 299.217 256.75 303.49L154.66 304.04L154.85 290.75Z" fill="#FF6200"/>
<path d="M118.31 323.73C117.52 338.69 94.58 337.99 95.86 322.87C96.33 317.24 100.72 314.14 106.24 313.73C110.553 313.41 114.503 313.403 118.09 313.71C118.51 313.743 118.713 313.97 118.7 314.39C118.593 317.683 118.463 320.797 118.31 323.73Z" fill="#141414"/>
</svg>
